<svg height="512pt" viewBox="0 0 512 512" width="512pt" xmlns="http://www.w3.org/2000/svg"><path d="m492 236h-18.914062c-9.421876-104.253906-92.429688-187.628906-197.085938-197.085938v-18.914062c0-11.046875-8.953125-20-20-20s-20 8.953125-20 20v18.914062c-104.253906 9.421876-187.628906 92.429688-197.085938 197.085938h-18.914062c-11.046875 0-20 8.953125-20 20s8.953125 20 20 20h18.914062c9.421876 104.253906 92.429688 187.628906 197.085938 197.085938v18.914062c0 11.046875 8.953125 20 20 20s20-8.953125 20-20v-18.914062c104.253906-9.421876 187.628906-92.429688 197.085938-197.085938h18.914062c11.046875 0 20-8.953125 20-20s-8.953125-20-20-20zm-76 40h16.871094c-9.234375 82.199219-74.671875 147.636719-156.871094 156.871094v-16.871094c0-11.046875-8.953125-20-20-20s-20 8.953125-20 20v16.871094c-82.199219-9.234375-147.636719-74.671875-156.871094-156.871094h16.871094c11.046875 0 20-8.953125 20-20s-8.953125-20-20-20h-16.871094c9.234375-82.199219 74.671875-147.636719 156.871094-156.871094v16.871094c0 11.046875 8.953125 20 20 20s20-8.953125 20-20v-16.871094c82.199219 9.234375 147.636719 74.671875 156.871094 156.871094h-16.871094c-11.046875 0-20 8.953125-20 20s8.953125 20 20 20zm-160-80c-33.085938 0-60 26.914062-60 60s26.914062 60 60 60 60-26.914062 60-60-26.914062-60-60-60zm0 80c-11.027344 0-20-8.972656-20-20s8.972656-20 20-20 20 8.972656 20 20-8.972656 20-20 20zm0 0"/></svg>